<?xml version="1.0" encoding="utf-8"?>
<!-- Generator: Adobe Illustrator 25.4.1, SVG Export Plug-In . SVG Version: 6.00 Build 0)  -->
<svg version="1.1" id="Calque_1" xmlns="http://www.w3.org/2000/svg" xmlns:xlink="http://www.w3.org/1999/xlink" x="0px" y="0px"
	 viewBox="0 0 1160 370" enable-background="new 0 0 1160 370" xml:space="preserve">
<path fill="#00002C" d="M137.94,220.44c0-31.89-34.31-48.72-67.27-65.19C36.01,138.08,0,120.21,0,86.21
	c0-47.66,43.83-66.59,84.26-68.34c-22.08,4.56-37.03,21.38-37.03,43.46c0,25.23,29.56,39.6,60.48,55.02
	c37.03,18.22,78.82,38.55,78.82,79.91c0,34.7-25.14,71.85-95.13,75.35C119.59,266.01,137.94,246.38,137.94,220.44z M0.34,230.26
	c0-12.62,9.51-23.83,22.42-23.83c11.89,0,21.74,9.81,21.74,22.78c0,11.57-8.83,21.03-18.35,23.48c1.02,5.96,5.1,11.21,10.53,13.67
	C19.71,260.05,0.34,248.83,0.34,230.26z M125.03,60.98c0-11.92,8.83-21.03,18.69-23.48c-1.36-6.31-5.1-11.21-10.53-14.02
	c18.01,6.66,36.35,18.22,36.35,36.1c0,12.97-9.51,23.83-22.42,23.83C135.22,83.41,125.03,73.6,125.03,60.98z M244.87,240.42V36.45
	c0-14.02-9.17-25.93-22.42-27.69L289.04,0v242.17c0,18.22,9.85,23.13,17.33,25.23h-78.82C234.68,265.3,244.87,260.05,244.87,240.42z
	 M352.91,239.37v-93.93c0-18.93-8.83-30.49-24.8-30.49c-5.78,0-12.91,1.4-19.37,4.56c15.97-11.57,34.65-13.32,42.81-13.32
	c11.21,0,45.53,3.5,45.53,45.91v89.72c0,18.93,9.85,23.48,17.33,25.58h-76.44C344.42,265.3,352.91,260.05,352.91,239.37z
	 M455.81,190.3c0-44.86,28.2-77.1,72.37-83.41c-16.99,8.41-25.48,45.56-25.48,76.75c0,48.72,20.39,78.5,59.8,78.5
	c14.61,0,28.88-4.21,42.13-11.21c-15.97,13.67-36.01,21.03-61.49,21.03C490.8,271.96,455.81,240.42,455.81,190.3z M576.08,161.22
	c0-23.13-6.79-46.26-22.08-54.67c37.71,4.56,63.19,31.54,63.87,69.04h-41.79V161.22z M675.34,240.42V36.45
	c0-14.02-8.83-25.93-22.42-27.69L719.84,0v242.17c0,18.22,9.85,23.13,17.33,25.23h-79.16C665.48,265.3,675.34,260.05,675.34,240.42z
	 M791.84,37.15c0-14.02-9.17-25.93-22.42-27.69l66.59-8.41v249.53h-0.34c-15.29,4.56-31.6,12.27-43.83,23.48V37.15z M869.98,268.81
	c1.7,0.35,3.4,0.35,5.1,0.35c39.07,0,44.17-45.21,44.17-77.1c0-53.62-14.61-79.91-44.85-79.91c-4.76,0-9.85,0.7-14.61,2.8
	c12.91-7.36,26.5-8.76,34.99-8.76c36.01,0,72.37,25.58,72.37,79.21c0,43.11-23.44,86.22-75.08,86.22
	C884.25,271.61,876.78,270.56,869.98,268.81z M1008.13,139.49c-9.85-19.98-20.72-25.23-27.18-28.04h89.35
	c-6.8,1.75-16.99,4.91-16.99,17.17c0,3.5,1.36,8.06,4.08,14.72l34.31,78.5l-21.06,48.36L1008.13,139.49z M989.11,329.09
	c0-12.62,9.85-22.78,21.74-22.78c12.23,0,22.08,10.16,22.08,22.78c0,12.27-9.85,22.43-22.08,22.43
	C998.96,351.52,989.11,341.36,989.11,329.09z M1128.74,131.78c0-14.72-10.87-18.57-18.35-20.33h49.6
	c-8.83,2.8-21.06,8.76-32.62,30.14C1128.4,138.08,1128.74,134.93,1128.74,131.78z"/>
<path fill="#FFFFFF" d="M478.66,362.81C473.8,367.6,468,370,461.24,370c-6.76,0-12.57-2.4-17.42-7.19
	c-4.85-4.79-7.28-10.53-7.28-17.2c0-6.67,2.43-12.41,7.28-17.2c4.85-4.79,10.66-7.19,17.42-7.19c6.76,0,12.57,2.4,17.42,7.19
	c4.85,4.79,7.28,10.53,7.28,17.2C485.94,352.29,483.51,358.02,478.66,362.81z M543.77,368.7c-12.59,0-23.05-4.14-31.39-12.43
	c-8.34-8.28-12.51-18.53-12.51-30.75c0-12.21,4.17-22.46,12.51-30.75c8.34-8.28,18.8-12.43,31.39-12.43
	c7.95,0,15.27,1.91,21.95,5.72c6.68,3.82,11.84,8.89,15.49,15.21l-21.7,12.43c-2.98-6.1-8.34-9.16-16.07-9.16
	c-5.41,0-9.89,1.77-13.42,5.32c-3.54,3.54-5.3,8.1-5.3,13.66c0,5.56,1.77,10.11,5.3,13.66c3.53,3.54,8.01,5.32,13.42,5.32
	c7.84,0,13.2-3.05,16.07-9.16l21.7,12.27c-3.64,6.43-8.78,11.56-15.41,15.37C559.17,366.79,551.83,368.7,543.77,368.7z
	 M646.97,284.63h24.85v81.77h-24.85v-7.69c-5.85,6.65-14.08,9.98-24.68,9.98c-10.93,0-20.27-4.17-28-12.51
	c-7.73-8.34-11.6-18.56-11.6-30.67c0-12.1,3.86-22.32,11.6-30.67c7.73-8.34,17.06-12.51,28-12.51c10.6,0,18.83,3.33,24.68,9.98
	V284.63z M613.01,340.07c3.64,3.6,8.39,5.4,14.25,5.4c5.85,0,10.6-1.8,14.25-5.4c3.64-3.6,5.47-8.45,5.47-14.56
	c0-6.1-1.82-10.96-5.47-14.56c-3.64-3.6-8.39-5.4-14.25-5.4c-5.85,0-10.6,1.8-14.25,5.4c-3.64,3.6-5.47,8.45-5.47,14.56
	C607.54,331.63,609.36,336.48,613.01,340.07z M717.05,303.93c-4.64,0-6.96,1.53-6.96,4.58c0,1.64,1.41,2.97,4.22,4.01
	c2.82,1.04,6.21,2.07,10.19,3.11c3.98,1.04,7.95,2.37,11.93,4.01c3.98,1.64,7.37,4.33,10.19,8.1c2.82,3.76,4.22,8.48,4.22,14.15
	c0,8.83-3.31,15.51-9.94,20.03c-6.63,4.52-14.8,6.79-24.52,6.79c-17.45,0-29.32-6.49-35.62-19.46l21.54-12.1
	c2.21,6.43,6.9,9.65,14.08,9.65c5.96,0,8.95-1.69,8.95-5.07c0-1.64-1.41-3-4.22-4.09c-2.82-1.09-6.21-2.15-10.19-3.19
	c-3.98-1.03-7.95-2.4-11.93-4.09c-3.98-1.69-7.37-4.33-10.19-7.93c-2.82-3.6-4.22-8.01-4.22-13.25c0-8.5,3.12-15.1,9.36-19.79
	c6.24-4.69,13.94-7.03,23.11-7.03c6.85,0,13.09,1.5,18.72,4.5c5.63,3,10.16,7.33,13.58,13l-21.2,11.28
	C725.5,306.33,721.8,303.93,717.05,303.93L717.05,303.93z M760.6,366.41v-81.77h24.85v81.77H760.6z M825.87,292.32
	c4.97-6.65,12.86-9.98,23.69-9.98c8.83,0,16.21,3,22.11,9c5.91,6,8.86,14.28,8.86,24.86v50.21h-24.85v-46.61
	c0-4.8-1.35-8.48-4.06-11.04c-2.71-2.56-6.16-3.84-10.35-3.84c-4.75,0-8.51,1.42-11.26,4.25c-2.76,2.84-4.14,7.03-4.14,12.59v44.65
	h-24.85v-81.77h24.85V292.32L825.87,292.32z M965.85,356.18c-8.51,8.34-18.89,12.51-31.14,12.51s-22.64-4.17-31.14-12.51
	c-8.51-8.34-12.76-18.56-12.76-30.67c0-12.1,4.25-22.32,12.76-30.67c8.5-8.34,18.89-12.51,31.14-12.51s22.64,4.17,31.14,12.51
	c8.5,8.34,12.76,18.56,12.76,30.67C978.61,337.62,974.35,347.84,965.85,356.18z M921.12,339.42c3.64,3.6,8.17,5.4,13.58,5.4
	c5.41,0,9.94-1.8,13.58-5.4c3.64-3.6,5.47-8.23,5.47-13.9c0-5.67-1.82-10.3-5.47-13.9c-3.64-3.6-8.17-5.4-13.58-5.4
	c-5.41,0-9.94,1.8-13.58,5.4c-3.64,3.6-5.47,8.23-5.47,13.9C915.66,331.19,917.48,335.82,921.12,339.42z"/>
</svg>
